<svg width="61" height="68" viewBox="0 0 61 68" fill="none" xmlns="http://www.w3.org/2000/svg">
<path d="M21.4801 50.8649H11.9667V44.5068H20.9416C21.181 42.345 21.6297 40.1833 22.4375 38.1487H11.9667V31.7906H26.3865C26.4762 31.6952 26.536 31.5998 26.6258 31.4727C30.4252 27.467 35.4213 25.4324 40.3874 25.4324H11.9667V19.0743H41.8833V25.4324H40.3874C45.2339 25.4324 50.0804 27.3717 53.8499 31.2183V12.7162C53.8499 9.21926 51.1873 6.35811 47.8666 6.35811H35.3615C34.105 2.67041 30.8141 0 26.925 0C23.0358 0 19.745 2.67041 18.4885 6.35811H5.98333C2.6925 6.35811 0 9.21926 0 12.7162V57.223C0 60.7518 2.6925 63.5811 5.98333 63.5811H30.0961C28.8695 62.7546 27.7028 61.8326 26.6258 60.72C23.9333 57.8906 22.2879 54.4572 21.4801 50.8649ZM26.925 6.35811C28.5704 6.35811 29.9166 7.78869 29.9166 9.53717C29.9166 11.2856 28.5704 12.7162 26.925 12.7162C25.2796 12.7162 23.9333 11.2856 23.9333 9.53717C23.9333 7.78869 25.2796 6.35811 26.925 6.35811ZM51.7857 53.726C53.102 51.5325 53.8499 48.8939 53.8499 46.0963C53.8499 38.1487 47.8666 31.7906 40.3874 31.7906C32.9083 31.7906 26.925 38.1487 26.925 46.0963C26.925 54.0439 32.9083 60.4021 40.3874 60.4021C42.9902 60.4021 45.4434 59.6073 47.5076 58.2403L56.8416 68L61 63.5811L51.7857 53.726ZM40.3874 54.0439C36.259 54.0439 32.9083 50.4834 32.9083 46.0963C32.9083 41.7092 36.259 38.1487 40.3874 38.1487C44.5159 38.1487 47.8666 41.7092 47.8666 46.0963C47.8666 50.4834 44.5159 54.0439 40.3874 54.0439Z" fill="white"/>
</svg>
