<svg width="88" height="83" viewBox="0 0 88 83" fill="none" xmlns="http://www.w3.org/2000/svg">
<path d="M27.324 41.5L21.472 45.1935V37.8065L27.324 41.5ZM41.668 32.453V22.161L23.364 33.698L31.504 38.844L41.668 32.453ZM64.68 33.698L46.332 22.161V32.453L56.496 38.844L64.68 33.698ZM23.364 49.302L41.668 60.839V50.547L31.504 44.156L23.364 49.302ZM46.332 50.547V60.839L64.68 49.302L56.496 44.156L46.332 50.547ZM44 36.271L35.728 41.5L44 46.729L52.272 41.5L44 36.271ZM88 41.5C88 64.325 68.2 83 44 83C19.8 83 0 64.325 0 41.5C0 18.675 19.8 0 44 0C68.2 0 88 18.675 88 41.5ZM71.192 33.698C71.192 33.5735 71.192 33.4905 71.192 33.4075L71.148 33.2L71.104 32.9925C71.06 32.951 71.06 32.9095 71.016 32.8265L70.972 32.7435L70.884 32.5775L70.84 32.4945L70.752 32.37L70.664 32.2455L70.532 32.121L70.4 32.038V31.955L70.224 31.872L70.18 31.8305L45.32 16.2265C44.528 15.7285 43.516 15.7285 42.724 16.2265L17.82 31.8305V31.872L17.6 31.955C17.6 31.9965 17.6 32.038 17.6 32.038L17.468 32.121L17.336 32.2455L17.292 32.37L17.16 32.4945L17.116 32.5775L17.028 32.7435L16.984 32.8265L16.896 32.9925V33.2H16.852L16.808 33.4075C16.808 33.4905 16.808 33.5735 16.808 33.698V49.302C16.808 49.4265 16.808 49.5095 16.808 49.5925L16.852 49.8H16.896V50.0075C16.94 50.049 16.94 50.0905 16.984 50.1735L17.028 50.2565L17.116 50.4225L17.16 50.5055L17.248 50.63L17.336 50.7545C17.38 50.796 17.424 50.8375 17.468 50.879L17.6 50.962V51.045L17.776 51.128L17.82 51.1695L42.724 66.815C43.076 67.064 43.56 67.147 44 67.147C44.44 67.147 44.924 67.0225 45.32 66.815L70.18 51.1695L70.224 51.128L70.4 51.045V50.962L70.532 50.879L70.664 50.7545L70.752 50.63L70.84 50.5055L70.884 50.4225L70.972 50.2565L71.016 50.1735L71.104 50.0075V49.8H71.148L71.192 49.5925C71.192 49.5095 71.192 49.4265 71.192 49.302V33.698ZM66.528 45.1935V37.8065L60.676 41.5L66.528 45.1935Z" fill="white"/>
</svg>
